<svg width="487" height="259" viewBox="0 0 487 259" fill="none" xmlns="http://www.w3.org/2000/svg">
<mask id="mask0_115:3" style="mask-type:alpha" maskUnits="userSpaceOnUse" x="0" y="0" width="487" height="259">
<rect width="487" height="259" rx="14" fill="#2676F1"/>
</mask>
<g mask="url(#mask0_115:3)">
<path fill-rule="evenodd" clip-rule="evenodd" d="M6.06445 28.1123C51.3055 45.8313 149.673 84.3578 118.54 160.273C85.7665 240.189 184.872 312.425 262.757 261.138C299.185 237.15 283.568 187.112 267.872 136.818C250.008 79.5791 232.041 22.0099 290.574 2.13752C441.638 -49.1496 486.48 86.7789 483.576 196.174C478.869 373.541 157.483 355.591 91.58 337.641C80.7734 334.697 69.7597 332.202 58.886 329.738C3.44733 317.178 -48.3507 305.443 -50.4974 239.34C-50.8503 228.471 -52.0928 214.334 -53.4854 198.489C-60.1969 122.124 -70.3937 6.10325 -1.28384 25.2167C0.960014 26.1131 3.42158 27.0772 6.06445 28.1123ZM373.167 121.38C396.329 121.38 410.398 105.139 415.105 79.495C418.165 62.8267 396.329 37.6106 373.167 37.6106C350.005 37.6106 336.364 57.2706 331.228 79.495C325.599 103.856 350.005 121.38 373.167 121.38Z" fill="white" fill-opacity="0.08"/>
</g>
</svg>
